 http://img854.imageshack.us/img854/8320/theviolentkind.jpg

Country.......: USA
Genre.........: Horror
Date release..: 25.01.2010 [World]
Director......: Mitchell Altieri, Phil Flores
Writers.......: Phil Flores, Phil Flores
Duration......: 89 min.
More..........: http://www.imdb.com/title/tt1472195
Trailer.......: http://www.imdb.com/video/imdb/vi2302385433
Trailer.......:

Pilot :
One night at a secluded farmhouse deep in the Northern California woods, a small group of hardened young bikers and their girlfriends are tormented when one of the girls becomes savagely possessed and a gang of "Rockabillies" seemingly from the 1950's descends upon them to collect what is growing inside her.

Cats :
Cory Knauf   	 ...  	Cody
Taylor Cole 	... 	Shade
Bret Roberts 	... 	Q
Christina Prousalis 	... 	Megan
Tiffany Shepis 	... 	Michelle
Nick Tagas 	... 	Elroy
Joe Egender 	... 	Vernon
Joseph McKelheer 	... 	Jazz
Samuel Child 	... 	Murderball
Mackenzie Firgens 	... 	Trixie
Ilea Matthews 	... 	Pussywagon
Terry Wayne 	... 	Dave
David Fine 	... 	Gin
Gigi Benson 	... 	Pedestrian
Erik Braa 	... 	Driver

Data Technical :
!!! SAMPLE !!!
Audio.....: English
Subtitles.: None
Format                           : AVI
Format/Info                      : Audio Video Interleave
File size                        : 699 MiB
Duration                         : 1h 28mn
Overall bit rate                 : 1 101 Kbps
Writing application              : Nandub v1.0rc2
Writing library                  : Nandub build 1852/release
Video
ID                               : 0
Format                           : MPEG-4 Visual
Format profile                   : Advanced Simple@L5
Format settings, BVOP            : Yes
Format settings, QPel            : No
Format settings, GMC             : No warppoints
Format settings, Matrix          : Default (H.263)
Codec ID                         : XVID
Codec ID/Hint                    : XviD
Duration                         : 1h 28mn
Bit rate                         : 772 Kbps
Width                            : 608 pixels
Height                           : 336 pixels
Display aspect ratio             : 16:9
Frame rate                       : 23.976 fps
Color space                      : YUV
Chroma subsampling               : 4:2:0
Bit depth                        : 8 bits
Scan type                        : Progressive
Bits/(Pixel*Frame)               : 0.158
Stream size                      : 490 MiB (70%)
Writing library                  : XviD 63
Audio
ID                               : 1
Format                           : AC-3
Format/Info                      : Audio Coding 3
Mode extension                   : CM (complete main)
Codec ID                         : 2000
Duration                         : 1h 28mn
Bit rate mode                    : Constant
Bit rate                         : 320 Kbps
Channel(s)                       : 6 channels
Channel positions                : Front: L C R, Side: L R, LFE
Sampling rate                    : 48.0 KHz
Bit depth                        : 16 bits
Video delay                      : 500ms
Stream size                      : 203 MiB (29%)
Alignment                        : Split accross interleaves
Interleave, duration             : 42 ms (1.00 video frame)
Interleave, preload duration     : 500 ms

Screen : 
http://img707.imageshack.us/img707/8674/theviolentkind2010s1.jpg 
http://img703.imageshack.us/img703/8044/theviolentkind2010s2.jpg 
http://img29.imageshack.us/img29/1369/theviolentkind2010s3.jpg 
http://img194.imageshack.us/img194/7645/theviolentkind2010s4.jpg 
http://img864.imageshack.us/img864/8843/theviolentkind2010s5.jpg